John Carter 2012 480P TS READNFO XviD AC3-26K

Imdb: 
http://www.imdb.com/title/tt0401729/

Plot:
Transplanted to Mars, a Civil War vet discovers a lush planet inhabited by 12-foot tall barbarians. Finding himself a prisoner of these creatures, he escapes, only to encounter a princess who is in desperate need of a savior.

Sources:
VIDEO- A FRIEND- THNXS MAN 
AUDIO- INSPIRAL/ UNKNOWN! THNXS GUYZ!
SUBS-  YES ENGLISH WHEN NEEDED... CHECK SRT SUBS ...

Notes:
Readnfo well the audio used was from inspirals/ unknowns release.... the line had repeared scenes in it was cut a lot !.... so for the last 36minutes cam audio of the inspial release has been used the rest is line!....the video is very good... we were given the hd files so here is the 480p !.... the video was recorded on slight slant... so i rotated.. cropped and filtered the video....Some camera movement in few places other than out enjoy! peace .x 

720P SOON...

Greetz:
Xtreme Encode|FYA|ILLUMANTI|CM8|RX|VISION|HDSCENE|NIGHTMAREZ|xTriLL|DTRG|CRYS|REMIXHD|BIDA|RX|REFILL|INSPiRAL|SIC|ZOMBIESZ|HOPE|Anonymous|GooN|P76|MIRAGE

To all the people who have helped me  you know who you are

Anything to offer email us @: 26k@hushmail.me

Video
ID                                       : 0
Format                                   : MPEG-4 Visual
Format profile                           : Advanced Simple@L5
Format settings, BVOP                    : 2
Format settings, QPel                    : No
Format settings, GMC                     : No warppoints
Format settings, Matrix                  : Default (H.263)
Codec ID                                 : XVID
Codec ID/Hint                            : XviD
Duration                                 : 2h 2mn
Bit rate                                 : 1 600 Kbps
Width                                    : 720 pixels
Height                                   : 304 pixels
Display aspect ratio                     : 2.35:1
Frame rate                               : 25.000 fps
Color space                              : YUV
Chroma subsampling                       : 4:2:0
Bit depth                                : 8 bits
Scan type                                : Progressive
Compression mode                         : Lossy
Bits/(Pixel*Frame)                       : 0.292
Stream size                              : 1.37 GiB (83%)
Writing library                          : XviD 64

Audio
ID                                       : 1
Format                                   : AC-3
Format/Info                              : Audio Coding 3
Mode extension                           : CM (complete main)
Codec ID                                 : 2000
Duration                                 : 2h 2mn
Source duration                          : 2h 2mn
Bit rate mode                            : Constant
Bit rate                                 : 320 Kbps
Channel(s)                               : 2 channels
Channel positions                        : Front: L R
Sampling rate                            : 44.1 KHz
Bit depth                                : 16 bits
Compression mode                         : Lossy
Stream size                              : 280 MiB (17%)
Alignment                                : Aligned on interleaves
Interleave, duration                     : 40 ms (1.00 video frame)